<?xml version="1.0" ?><svg viewBox="0 0 48 48" xmlns="http://www.w3.org/2000/svg"><defs><style>.cls-1{fill:#fc6;}.cls-2{fill:#ffde76;}.cls-3{fill:#f6ccaf;}.cls-4{fill:#ffdec7;}.cls-5{fill:#374f68;}.cls-6{fill:#db5669;}.cls-7{fill:#ffba55;}.cls-8{fill:#f26674;}.cls-9{fill:#425b72;}.cls-10{fill:#dad7e5;}.cls-11{fill:#edebf2;}</style></defs><title/><g data-name="Crowd Patient" id="Crowd_Patient"><path class="cls-1" d="M18.45,38.92A9,9,0,0,0,15.52,43H1V42c0-8.45,10.6-12.13,15.84-5.84A8.89,8.89,0,0,1,18.45,38.92Z"/><path class="cls-2" d="M18.45,38.92A8.82,8.82,0,0,0,16.53,41H6a2.84,2.84,0,0,1-2.52-3.76,8.59,8.59,0,0,1,.69-1.58,2.77,2.77,0,0,1,1.58-1.57C11,31.19,17.37,34.59,18.45,38.92Z"/><path class="cls-3" d="M14,27c0,3,.19,4-.72,5.28a4,4,0,0,1-6.11.55C5.69,31.33,6,29.77,6,27c1.47.61,3.87,1.13,5,0A2.08,2.08,0,0,1,14,27Z"/><path class="cls-4" d="M14,27c0,3,.19,4-.72,5.28a4,4,0,0,1-5.11-.45C6.82,30.46,7,29.09,7,27.35c1.15.32,3,.64,4-.35A2.08,2.08,0,0,1,14,27Z"/><path class="cls-5" d="M14,27a2.08,2.08,0,0,0-3,0c-1.5,1.5-5,0-5,0a4,4,0,0,1,8,0Z"/><path class="cls-6" d="M33,46v1H15a10.25,10.25,0,0,1,.52-4A9,9,0,0,1,33,46Z"/><path class="cls-6" d="M33,46v1H15a10.25,10.25,0,0,1,.52-4A9,9,0,0,1,33,46Z"/><path class="cls-7" d="M16.53,41a8.74,8.74,0,0,0-1,2h-2a8.74,8.74,0,0,1,1-2Z"/><path class="cls-1" d="M18.45,38.92C15.4,41.32,18,41,14.53,41A8.91,8.91,0,0,1,18,37.93,7.25,7.25,0,0,1,18.45,38.92Z"/><path class="cls-8" d="M32.94,45c-17.71,0-11.7,0-13,0a2.84,2.84,0,0,1-2.52-3.76,9.22,9.22,0,0,1,1.3-2.55A9,9,0,0,1,32.94,45Z"/><path class="cls-3" d="M28,31c0,3,.19,4-.72,5.28a4,4,0,0,1-6.11.55C19.69,35.33,20,33.77,20,31c1.47.61,3.87,1.13,5,0A2.08,2.08,0,0,1,28,31Z"/><path class="cls-4" d="M28,31c0,3,.19,4-.72,5.28a4,4,0,0,1-5.11-.45C20.82,34.46,21,33.09,21,31.35c1.15.32,3,.64,4-.35A2.08,2.08,0,0,1,28,31Z"/><path class="cls-5" d="M28,31a2.08,2.08,0,0,0-3,0c-1.5,1.5-5,0-5,0a4,4,0,0,1,8,0Z"/><path class="cls-1" d="M47,42v1H32.48a9,9,0,0,0-2.93-4.08C33,29.54,47,31.93,47,42Z"/><path class="cls-2" d="M46.94,41c-17.71,0-11.7,0-13,0a2.84,2.84,0,0,1-2.52-3.76,9.22,9.22,0,0,1,1.3-2.55A9,9,0,0,1,46.94,41Z"/><path class="cls-3" d="M42,27c0,3,.19,4-.72,5.28a4,4,0,0,1-6.11.55C33.69,31.33,34,29.77,34,27c1.47.61,3.87,1.13,5,0A2.08,2.08,0,0,1,42,27Z"/><path class="cls-4" d="M42,27c0,3,.19,4-.72,5.28a4,4,0,0,1-5.11-.45C34.82,30.46,35,29.09,35,27.35c1.15.32,3,.64,4-.35A2.08,2.08,0,0,1,42,27Z"/><path class="cls-5" d="M42,27a2.08,2.08,0,0,0-3,0c-1.5,1.5-5,0-5,0a4,4,0,0,1,8,0Z"/><path class="cls-9" d="M42,27a2.07,2.07,0,0,0-3,0,2.36,2.36,0,0,1-1.46.64A9.29,9.29,0,0,1,35,27a4,4,0,0,1,3.5-4A4,4,0,0,1,42,27Z"/><path class="cls-9" d="M28,31a2.07,2.07,0,0,0-3,0,2.36,2.36,0,0,1-1.46.64A9.29,9.29,0,0,1,21,31a4,4,0,0,1,3.5-4A4,4,0,0,1,28,31Z"/><path class="cls-9" d="M14,27a2.07,2.07,0,0,0-3,0,2.36,2.36,0,0,1-1.46.64A9.29,9.29,0,0,1,7,27a4,4,0,0,1,3.5-4A4,4,0,0,1,14,27Z"/><path class="cls-10" d="M34,11a10,10,0,0,1-2,6c-5.76,7.67-18,3.54-18-6a10,10,0,0,1,4-8l0,0A10,10,0,0,1,34,11Z"/><path class="cls-11" d="M34,11a10,10,0,0,1-2,6A10,10,0,0,1,18,3,10,10,0,0,1,34,11Z"/><polygon class="cls-8" points="29 9 26 9 26 6 22 6 22 9 19 9 19 13 22 13 22 16 26 16 26 13 29 13 29 9"/></g></svg>