<?xml version="1.0" ?><svg viewBox="0 0 48 48" xmlns="http://www.w3.org/2000/svg"><defs><style>.cls-1{fill:#f6ccaf;}.cls-2{fill:#ffdec7;}.cls-3{fill:#db5669;}.cls-4{fill:#f26674;}.cls-5{fill:#edb996;}.cls-6{fill:#edebf2;}.cls-7{fill:#dad7e5;}.cls-8{fill:#374f68;}.cls-9{fill:#425b72;}.cls-10{fill:#c6c3d8;}.cls-11{fill:#c4455e;}</style></defs><title/><g id="Patient"><path class="cls-1" d="M30,13c0,6.68.58,9.8-2.31,13A9,9,0,0,1,12,20V13c3.43.35,10.55.14,12-3A7.5,7.5,0,0,0,30,13Z"/><path class="cls-2" d="M30,13c0,6.89.47,9.32-1.74,12.29A9,9,0,0,1,14,18V13.1c3,.13,8.73-.34,10-3.1A7.5,7.5,0,0,0,30,13Z"/><path class="cls-1" d="M12,13v6H11a3,3,0,0,1,0-6Z"/><path class="cls-1" d="M34,16a3,3,0,0,1-3,3H30V13h1A3,3,0,0,1,34,16Z"/><path class="cls-2" d="M34,15.5A3,3,0,0,1,31,18H30V13h1A3,3,0,0,1,34,15.5Z"/><path class="cls-3" d="M37,47H1l1-5.31a10,10,0,0,1,6.47-7.63l5.56-2a7,7,0,0,0,12.25,4.56c1.5-1.72.62-2,.77,1A10,10,0,0,0,37,47Z"/><path class="cls-4" d="M31,45H9.4A4.51,4.51,0,0,1,5,39.69a10.07,10.07,0,0,1,2.5-5c1.22-.81.26-.38,6.53-2.62a7,7,0,0,0,12.25,4.56A5.37,5.37,0,0,0,27,36.3,10,10,0,0,0,31,45Z"/><path class="cls-1" d="M25,28.06V31a4,4,0,0,1-8,0V28.06A9,9,0,0,0,25,28.06Z"/><path class="cls-5" d="M17,28.06v1.42a8.94,8.94,0,0,0,7-.42c0,2.94.19,3.92-.72,5.22,2.1-1.46,1.72-3.51,1.72-6.22A9,9,0,0,1,17,28.06Z"/><path class="cls-6" d="M28.25,32.16a9.81,9.81,0,0,0-1.11,3.2A7,7,0,0,1,14,32.07L17,31a4,4,0,1,0,8,0Z"/><path class="cls-7" d="M25.77,31.28,25,31a4,4,0,0,1-.72,2.28A3.93,3.93,0,0,0,25.77,31.28Z"/><path class="cls-7" d="M26.37,36.47A7,7,0,0,1,14,32.07l1-.37A7,7,0,0,0,26.37,36.47Z"/><path class="cls-8" d="M31,13H30a7.5,7.5,0,0,1-6-3c-1.89,3.78-10.26,3-13,3V11A10,10,0,0,1,28.07,3.93C31.14,7,31,10.2,31,13Z"/><path class="cls-1" d="M22.78,11.37C21.26,13.62,17,14.08,14,14.1v-1C16.32,13.2,21.09,12.85,22.78,11.37Z"/><path class="cls-1" d="M24,10a3.78,3.78,0,0,1-.91,1.13A7.54,7.54,0,0,0,29,14h1V13A7.5,7.5,0,0,1,24,10Z"/><path class="cls-9" d="M31,11a9,9,0,0,1-3.54-.44A7.52,7.52,0,0,1,24,8c-1.43,2.86-7,3.16-10,3.1a10,10,0,0,1,8.48-10A10,10,0,0,1,31,11Z"/><path class="cls-8" d="M23.45,24.83a4.67,4.67,0,0,0-4.9,0,1,1,0,0,1-1.1-1.66c3.52-2.34,8.53-.34,7.38,1.38A1,1,0,0,1,23.45,24.83Z"/><path class="cls-8" d="M16,19a1,1,0,0,1,0-2,1,1,0,0,0,1-1,1,1,0,0,1,1-1C19.91,15,19,19,16,19Z"/><path class="cls-8" d="M26,19c-3,0-3.92-4-2-4a1,1,0,0,1,1,1,1,1,0,0,0,1,1A1,1,0,0,1,26,19Z"/><path class="cls-7" d="M47,37a10,10,0,1,1-14-9.19A10,10,0,0,1,47,37Z"/><path class="cls-7" d="M28.25,32.16C26.7,35,27.77,36,25.16,37.24A10,10,0,0,1,27.85,32Z"/><path class="cls-10" d="M26.37,36.47a7.09,7.09,0,0,1-1.27,1.18C25.18,36.9,25.07,37.52,26.37,36.47Z"/><path class="cls-11" d="M37,47H29a10.29,10.29,0,0,1-2-2c6.49,0,2.43-.27,6.24,1.26A9.94,9.94,0,0,0,37,47Z"/><path class="cls-3" d="M31,45H27a9.92,9.92,0,0,1-1.9-7.33,7,7,0,0,0,2-2.31A10,10,0,0,0,31,45Z"/><path class="cls-6" d="M47,37a9.94,9.94,0,0,1-3,7.18A9.83,9.83,0,0,1,40,45a10,10,0,0,1-7-17.19A10,10,0,0,1,47,37Z"/><polygon class="cls-3" points="42 35 39 35 39 32 35 32 35 35 32 35 32 39 35 39 35 42 39 42 39 39 42 39 42 35"/></g></svg>